<svg xmlns="http://www.w3.org/2000/svg" width="256" height="256" viewBox="0 0 100 100">
  <rect width="100%" height="100%" rx="0" fill="#e46262"></rect>
  <g transform="translate(25, 20) scale(0.85)">
    <path fill="#fff" d="M63.12 80.32L47.52 54.64L35.76 54.64L35.76 80.32L28 80.32L28 19.68L49.20 19.68Q69.04 19.68 69.04 37.28L69.04 37.28Q69.04 44.24 65.72 48.52Q62.40 52.80 55.76 54.08L55.76 54.08L72 80.32L63.12 80.32ZM35.76 26.48L35.76 47.84L49.20 47.84Q61.04 47.84 61.12 37.28L61.12 37.28Q61.12 31.68 58.16 29.08Q55.20 26.48 49.20 26.48L49.20 26.48L35.76 26.48Z"></path>
  </g>
</svg>
